<?xml version="1.0" encoding="utf-8"?>
<!-- Generator: Adobe Illustrator 23.0.1, SVG Export Plug-In . SVG Version: 6.00 Build 0)  -->
<svg version="1.1" id="Capa_1" xmlns="http://www.w3.org/2000/svg" xmlns:xlink="http://www.w3.org/1999/xlink" x="0px" y="0px"
	 viewBox="0 0 612 612" style="enable-background:new 0 0 612 612;" xml:space="preserve">
<style type="text/css">
	.st0{fill:#FFFFFF;}
</style>
<g>
	<path class="st0" d="M339.3,19.6c-92.2,0-173.8,46-223.2,116.3c10.2,6.7,20.2,15.8,29.8,27.6c36.8-55.1,96.4-93.7,165.3-102.1
		l28,47.4l28-47.4c106,12.8,190.2,97,202.9,202.9l-47.4,28l47.4,28c-8.5,70.8-49.1,131.8-106.7,168.4c3.7,8.4,5.7,16.9,6.1,25.7
		c0.3,6.4-0.4,12.5-1.7,18.3c85.7-46,144.1-136.5,144.1-240.4C612,141.9,489.7,19.6,339.3,19.6z M408.9,468.7
		c-62.9-50.5-80.4-25.7-109,2.8c-19.9,19.9-70.3-21.7-113.8-65.2c-43.5-43.5-85.1-93.9-65.2-113.8c28.5-28.5,53.4-46.1,2.8-109
		c-50.5-62.9-84.2-14.6-111.8,13c-31.9,31.9-1.7,150.7,115.8,268.2C245.1,582.2,364,612.4,395.8,580.5
		C423.5,552.9,471.8,519.2,408.9,468.7z M217.4,335c0-55.9,65.4-65.8,65.4-87.6c0-10.6-8.5-15-16.3-15c-14.4,0-22.4,16.1-22.4,16.1
		L216.6,230c0,0,14-32.6,53.3-32.6c24.8,0,51.6,14.2,51.6,46.4c0,47.2-61,56.3-62,75.8h64.4v31.8H219.1
		C218.1,345.3,217.4,340,217.4,335z M339.4,292.2l58.4-92.3h45.3v84h18v30.7h-18v36.6h-36.6v-36.6h-67.1L339.4,292.2L339.4,292.2z
		 M406.5,283.9v-33.9c0-8.3,1.3-16.9,1.3-16.9h-0.4c0,0-3.2,9.3-7.4,15.7l-22.9,34.7v0.4L406.5,283.9L406.5,283.9z"/>
</g>
</svg>
