<svg id="Layer_1" data-name="Layer 1" xmlns="http://www.w3.org/2000/svg" viewBox="0 0 158.72 216.13"><defs><style>.cls-1{fill:#fff;}.cls-1,.cls-2{fill-rule:evenodd;}.cls-2{fill:#5ec3f2;}</style></defs><title>alerg</title><path class="cls-1" d="M258.11,341.89l30.12-55.06-.47-.94-10.34-15.53-5.66-5.65c-19.29-17.88-44.24-22.11-56.47-23h-1.41l-32,58.35a41,41,0,0,0-5.17,22.59,42.92,42.92,0,0,0,22.58,36.24,43.82,43.82,0,0,0,58.82-16.94Z" transform="translate(-176.63 -147.92)"/><path class="cls-1" d="M218.12,229.41,228,231.3c19.29,2.82,45.17,11.29,61.63,35.76l6.58,9.41,33.41-61.18a43.14,43.14,0,0,0,5.66-24,43.92,43.92,0,0,0-23.54-37.64,44.57,44.57,0,0,0-60.69,17c-.17.29-.32.58-.48.87Z" transform="translate(-176.63 -147.92)"/><path class="cls-2" d="M305.17,165.9a30.61,30.61,0,0,1,16.47,25.87c0,6.12-.94,11.77-3.76,16.94L294.81,250.6c-16.94-19.29-38.58-27.76-55.06-31.53l22.58-40.95a31.24,31.24,0,0,1,42.38-12.47l.45.25Z" transform="translate(-176.63 -147.92)"/></svg>