<?xml version="1.0" encoding="utf-8"?>
<!-- Generator: Adobe Illustrator 23.0.1, SVG Export Plug-In . SVG Version: 6.00 Build 0)  -->
<svg version="1.1" id="Capa_1" xmlns="http://www.w3.org/2000/svg" xmlns:xlink="http://www.w3.org/1999/xlink" x="0px" y="0px"
	 viewBox="0 0 480 480" style="enable-background:new 0 0 480 480;" xml:space="preserve">
<style type="text/css">
	.st0{fill:#F4F4F4;}
</style>
<g>
	<g>
		<path class="st0" d="M336.7,0c-17.6,0-34.8,4.5-50.2,13c-28.9,16.2-64.1,16.2-93,0c-15.4-8.5-32.6-13-50.2-13
			C86.3,0.1,40.1,46.3,40,103.3V120c0.1,53,17.1,104.6,48.5,147.3l35.2,183.2c3.8,19.7,22.8,32.6,42.5,28.8
			c15.2-2.9,26.9-15.2,29.1-30.6l25.1-175.9c1.5-10.8,11.5-18.2,22.3-16.7c8.6,1.2,15.4,8,16.7,16.7l25.2,175.9
			c2.8,19.9,21.2,33.7,41.1,30.9c15.4-2.2,27.6-13.9,30.6-29.1l35.2-183.2C422.9,224.6,439.9,173,440,120v-16.7
			C440,46.2,393.7,0,336.7,0z M424,120c-0.1,50.2-16.4,99-46.4,139.2c-0.7,1-1.2,2.1-1.5,3.3l-35.6,185c-2.1,11-12.8,18.3-23.8,16.1
			c-8.5-1.6-15.1-8.5-16.3-17.1l-25.1-175.9c-2.8-19.5-20.9-33-40.4-30.3c-15.7,2.2-28,14.6-30.3,30.3l-25.1,175.9
			c-1.6,11.1-11.9,18.9-23,17.3c-8.6-1.2-15.4-7.8-17.1-16.3l-35.6-185c-0.2-1.2-0.7-2.3-1.5-3.3C72.4,219,56.1,170.2,56,120v-16.7
			C56,55.1,95.1,16,143.3,16c14.8,0,29.4,3.8,42.4,11c33.7,18.9,74.9,18.9,108.6,0c22.8-12.7,50.1-14.5,74.3-4.8l-62.8,76.8
			c-2.8,3.4-2.3,8.5,1.1,11.3c1.4,1.2,3.2,1.8,5.1,1.8h44.7l-66.3,66.3l11.3,11.3l80-80c3.1-3.1,3.1-8.2,0-11.3
			c-1.5-1.5-3.5-2.3-5.7-2.3h-47.1l54.3-66.4c25.4,15.9,40.8,43.8,40.8,73.7L424,120L424,120z"/>
	</g>
</g>
<g>
	<g>
		<path class="st0" d="M128,56l-1.6-7.8C110.4,51.4,80,68.8,80,112h16c0-40.6,32.2-47.9,33.6-48.2L128,56z"/>
	</g>
</g>
<g>
	<g>
		<rect x="144" y="48" class="st0" width="16" height="16"/>
	</g>
</g>
</svg>
