<svg id="Layer_1" data-name="Layer 1" xmlns="http://www.w3.org/2000/svg" viewBox="0 0 240.16 240.17"><defs><style>.cls-1{fill:#00c7ff;}.cls-1,.cls-2,.cls-3{fill-rule:evenodd;}.cls-2{fill:#fff;}.cls-3{fill:#5ec3f2;}</style></defs><title>cerrah</title><path class="cls-1" d="M351.39,351.12h0a9.49,9.49,0,0,1-12.18,0,8.61,8.61,0,1,1,12.18-12.18A9.49,9.49,0,0,1,351.39,351.12Z" transform="translate(-136.05 -135.78)"/><path class="cls-2" d="M173.81,264.35h0l73.09,73.48-22.52,22.88c-19.94,20.31-52.78,20.31-73.1,0a51.92,51.92,0,0,1,0-73.43l0,0Z" transform="translate(-136.05 -135.78)"/><path class="cls-2" d="M224.38,151c-19.94-19.93-52.78-19.93-73.1,0a51.92,51.92,0,0,0,0,73.43l0,0L287.52,360.71a51.9,51.9,0,0,0,73.4.07l.07-.07a52.58,52.58,0,0,0,0-73.47Z" transform="translate(-136.05 -135.78)"/><path class="cls-2" d="M338.1,247h0l-73.48-73.1,22.9-22.9A52,52,0,1,1,361,224.47h0Z" transform="translate(-136.05 -135.78)"/><path class="cls-3" d="M329.61,321.94h0c-3.32-2.95-3.32-8.85,0-12.18,2.95-3.33,8.86-3.33,12.18,0s3.32,9.23,0,12.18C338.47,325.27,332.56,325.27,329.61,321.94Z" transform="translate(-136.05 -135.78)"/><path class="cls-3" d="M320,293.14h0A8.7,8.7,0,0,1,320,281a8.26,8.26,0,0,1,11.68-.14l.14.14a8.08,8.08,0,0,1,.79,11.4,7.37,7.37,0,0,1-.79.79,8.24,8.24,0,0,1-11.65.17l-.17-.17Z" transform="translate(-136.05 -135.78)"/><path class="cls-3" d="M322.22,341.51h0c-3,3.32-8.85,3.32-12.17,0s-3.32-9.23,0-12.18c3.32-3.32,9.22-3.32,12.17,0C325.55,332.28,325.55,338.19,322.22,341.51Z" transform="translate(-136.05 -135.78)"/><path class="cls-3" d="M300.44,312.35h0a8.62,8.62,0,0,1,12.08-12.3,1.14,1.14,0,0,1,.11.11,8.62,8.62,0,0,1-12.19,12.19Z" transform="translate(-136.05 -135.78)"/><path class="cls-3" d="M293.42,331.54h0c-3.69,3.69-8.86,3.69-12.19,0a8.25,8.25,0,0,1-.14-11.67l.14-.14c3.33-3.32,8.49-3.32,12.19,0a8.23,8.23,0,0,1,.17,11.64C293.54,331.43,293.48,331.48,293.42,331.54Z" transform="translate(-136.05 -135.78)"/><path class="cls-3" d="M237.69,290.93h0l-17-16.61a38,38,0,0,1,53.91-53.53l16.61,16.61a37.85,37.85,0,0,1-53.52,53.54Z" transform="translate(-136.05 -135.78)"/><path class="cls-3" d="M199.28,211.18h0c-3.32-3-3.32-8.49,0-12.17,3.32-3.33,9.22-3.33,12.18,0,3.33,3.69,3.33,9.22,0,12.17A8.07,8.07,0,0,1,199.28,211.18Z" transform="translate(-136.05 -135.78)"/><path class="cls-3" d="M189.68,182.39h0a9.5,9.5,0,0,1,0-12.19,8.7,8.7,0,0,1,12.19,0c3.32,3.7,3.32,8.87,0,12.19A8.69,8.69,0,0,1,189.68,182.39Z" transform="translate(-136.05 -135.78)"/><path class="cls-3" d="M192.26,230.76h0a8.61,8.61,0,1,1,0-12.18,8.62,8.62,0,0,1,0,12.18Z" transform="translate(-136.05 -135.78)"/><path class="cls-3" d="M170.48,201.59h0c-3.32-3.33-3.32-8.5,0-12.19a9.5,9.5,0,0,1,12.19,0c3.33,3.69,3.33,8.86,0,12.19C179,204.91,173.82,204.91,170.48,201.59Z" transform="translate(-136.05 -135.78)"/><path class="cls-3" d="M160.89,172.8h0a8.1,8.1,0,0,1-.75-11.43,6.64,6.64,0,0,1,.75-.75,8.62,8.62,0,1,1,0,12.19Z" transform="translate(-136.05 -135.78)"/><path class="cls-3" d="M218.85,179.8h0c3-3.32,8.5-3.32,12.18,0a8.7,8.7,0,0,1,0,12.2c-3.69,3.69-9.23,3.69-12.18,0a8.7,8.7,0,0,1,0-12.19Z" transform="translate(-136.05 -135.78)"/></svg>