<?xml version="1.0" encoding="utf-8"?>
<!-- Generator: Adobe Illustrator 23.0.1, SVG Export Plug-In . SVG Version: 6.00 Build 0)  -->
<svg version="1.1" id="Capa_1" xmlns="http://www.w3.org/2000/svg" xmlns:xlink="http://www.w3.org/1999/xlink" x="0px" y="0px"
	 viewBox="0 0 512 512" style="enable-background:new 0 0 512 512;" xml:space="preserve">
<style type="text/css">
	.st0{fill:#F5F1F1;}
</style>
<g>
	<g>
		<polygon class="st0" points="271.4,249.7 271,145.9 241,146 241.5,262.3 351.3,370.2 372.3,348.8 		"/>
	</g>
</g>
<g>
	<g>
		<path class="st0" d="M437,75C388.7,26.6,324.4,0,256,0S123.3,26.6,75,75C26.6,123.3,0,187.6,0,256s26.6,132.7,75,181
			s112.6,75,181,75s132.7-26.6,181-75c48.4-48.4,75-112.6,75-181C512,187.6,485.4,123.3,437,75z M426.1,404.8l-28.3-28.3l-21.2,21.2
			l28.3,28.3c-37.5,32.9-84.1,52.2-133.8,55.4v-40h-30v40c-49.7-3.2-96.4-22.6-133.8-55.4l28.3-28.3l-21.2-21.2l-28.3,28.3
			C53.1,367.4,33.7,320.7,30.5,271h40v-30h-40c3.2-49.7,22.6-96.4,55.4-133.8l28.3,28.3l21.2-21.2l-28.3-28.3
			c37.5-32.9,84.1-52.2,133.8-55.4v37.7h30V30.5c49.7,3.2,96.4,22.6,133.8,55.4l-26.7,26.7l21.2,21.2l26.7-26.7
			c32.9,37.5,52.2,84.1,55.4,133.8h-40v30h40C478.3,320.7,458.9,367.4,426.1,404.8z"/>
	</g>
</g>
</svg>
