<svg id="Layer_1" data-name="Layer 1" xmlns="http://www.w3.org/2000/svg" viewBox="0 0 169.98 224.87"><defs><style>.cls-1{fill:#fff;}</style></defs><title>dentis</title><path class="cls-1" d="M339.46,174.75a59.21,59.21,0,0,1-.34,28.07,166.59,166.59,0,0,1-10.4,28.41c-4.15,9.7-6.92,17.32-7.61,22.87-.69,2.77-1,10.39-.69,22.86A229.18,229.18,0,0,1,319,312c-5.19,37.77-13.51,56.48-24.93,56.48a13.15,13.15,0,0,1-6.59-1.74,13.78,13.78,0,0,1-4.15-6.92,48,48,0,0,1-2.08-9,103,103,0,0,1-.7-11.78,111.55,111.55,0,0,1,.36-12.13q.51-4.68,1-12.48c.69-9,.69-14.9.35-18.36-1.74-20.79-10.75-30.84-26-30.84-15.94,0-24.6,10-26.33,30.84-.35,3.11-.35,9,.35,18.36.35,5.21.69,9.36.69,12.48.35,2.77.35,6.93.69,12.13,0,4.85,0,8.67-.69,11.78a48,48,0,0,1-2.08,9c-1,3.12-2.08,5.19-4.17,6.92a13.29,13.29,0,0,1-6.58,1.74c-11.44,0-19.76-18.71-24.95-56.48a235.23,235.23,0,0,1-1.38-35c.35-11.78,0-19.05-.69-22.86-.69-5.55-3.46-13.17-7.63-22.87a202,202,0,0,1-10.39-28.41,64.1,64.1,0,0,1-1-28.07c3.81-15.25,11.43-24.95,23.56-29.11,8.32-3.12,19.06-2.77,31.88,1.39S250.05,153,256.3,153c5.88,0,15.24-1.73,28.41-5.89,12.82-4.16,23.56-4.51,32.22-1.39,11.78,4.16,19.41,13.86,22.52,29.11Z" transform="translate(-171 -143.61)"/></svg>