<svg id="Layer_1" data-name="Layer 1" xmlns="http://www.w3.org/2000/svg" viewBox="0 0 217.07 251.61"><defs><style>.cls-1{fill:#fff;}</style></defs><title>f-terapiya</title><path class="cls-1" d="M363.06,355.43h0l-31.4-72.11c-3.49-8.52-12.8-12.8-21.72-10.86l-62.8,14.34V219.37a19,19,0,0,0-38,0l.37,91.1c0,5.83,2.32,11.64,7,15.12,4.26,3.87,10.47,5,15.89,3.87L303,313.18l25.2,57.38a18.13,18.13,0,0,0,17.06,11.24,27.08,27.08,0,0,0,7.74-1.16,19.56,19.56,0,0,0,10.09-25.21Z" transform="translate(-147.47 -130.19)"/><path class="cls-1" d="M263.43,160.05h0a29.85,29.85,0,0,0-59.7,0v0a29.54,29.54,0,0,0,29.62,29.46h.23c16.28,0,29.85-13.19,29.85-29.46Z" transform="translate(-147.47 -130.19)"/><path class="cls-1" d="M280.88,337.6c5.42-1.16,11.23-1.94,17-3.49.78,2.32,2.34,4.65,3.11,7.36-14.73,22.49-40.71,39.16-70.17,39.16-46.13,0-83.35-38-83.35-84.13,0-31.79,19.77-58.93,45.74-72.89v22.1C177.75,257.35,166.5,276,166.5,296.9c0,35.29,28.69,64.36,64,64.36,20.54,0,38.76-8.92,50.4-23.65Z" transform="translate(-147.47 -130.19)"/></svg>