<?xml version="1.0" encoding="utf-8"?>
<!-- Generator: Adobe Illustrator 23.0.1, SVG Export Plug-In . SVG Version: 6.00 Build 0)  -->
<svg version="1.1" id="Capa_1" xmlns="http://www.w3.org/2000/svg" xmlns:xlink="http://www.w3.org/1999/xlink" x="0px" y="0px"
	 viewBox="0 0 388.8 388.8" style="enable-background:new 0 0 388.8 388.8;" xml:space="preserve">
<style type="text/css">
	.st0{fill:#F4F4F4;}
</style>
<g>
	<g>
		<path class="st0" d="M262.5,182.9C262.5,182.9,262.4,182.9,262.5,182.9h-32.6v-32.6c0-6.6-5.3-12-11.8-12c0,0-0.1,0-0.1,0h-47
			c-6.6,0-11.9,5.3-11.9,11.9v32.6h-32.6c-6.6,0-12,5.3-12,11.8c0,0.1,0,0.1,0,0.2v47c0,6.6,5.3,11.9,11.9,11.9H159v32.6
			c0,6.6,5.3,12,11.8,12c0,0,0.1,0,0.1,0h47c6.6,0,11.9-5.3,11.9-11.9l0,0v-32.6h32.6c6.6,0,12-5.3,12-11.8c0,0,0-0.1,0-0.1v-47
			C274.4,188.2,269.1,182.9,262.5,182.9z M258.4,237.7h-36.6c-4.4,0-8,3.6-8,8v36.6H175v-36.6c0-4.4-3.6-8-8-8h-36.6v-38.8H167
			c4.4,0,8-3.6,8-8v-36.6h38.8v36.6c0,4.4,3.6,8,8,8h36.6V237.7z"/>
	</g>
</g>
<g>
	<g>
		<path class="st0" d="M333.6,78.4L333.6,78.4h-65.9V50.2c0.4-12.9-9.7-23.6-22.5-24c-0.7,0-1.3,0-2,0h-97.6
			c-12.8-0.7-23.8,9.2-24.5,22c0,0.7,0,1.3,0,2v28H55.2C29.8,78.2,0,92.7,0,133.4v174c0,40.7,29.8,55.2,55.2,55.2h278.4
			c25.4,0,55.2-14.5,55.2-55.2V133.6C388.8,92.9,359.1,78.4,333.6,78.4z M137.1,50.2c0-2.3,0-8.6,8.6-8.6h97.5
			c8.6,0,8.6,6.2,8.6,8.6v28H137.1V50.2z M372.8,307.4c0,35.4-27.4,39.2-39.2,39.2H55.2c-11.8,0-39.2-3.8-39.2-39.2V133.6
			c0-35.4,27.4-39.2,39.2-39.2h278.4c11.8,0,39.2,3.8,39.2,39.2L372.8,307.4L372.8,307.4z"/>
	</g>
</g>
</svg>
