<svg id="Layer_1" data-name="Layer 1" xmlns="http://www.w3.org/2000/svg" viewBox="0 0 248.85 254.73"><defs><style>.cls-1{fill:#fff;}</style></defs><title>geno</title><path class="cls-1" d="M147.25,128.63h0c-14.89,1.17-15.68,11-15.68,14.89v46.64c0,8.24,6.66,15.28,14.89,15.28a15.19,15.19,0,0,0,14.89-15.28V179.58l18,17.25c-19.59,29.78-14.88,70.54,11.37,97.19a77.42,77.42,0,0,0,54.87,22.73,80.92,80.92,0,0,0,25.48-4.31,89.74,89.74,0,0,1-32.52-24.3,10.7,10.7,0,0,0-2-2.35,46.42,46.42,0,0,1-24.68-13.33,47.52,47.52,0,0,1,66.75-67.65c.22.21.44.43.65.65,16.85,16.46,18,43.11,4.7,61.53a36.12,36.12,0,0,0,20,5.88h1.18a30.58,30.58,0,0,0,8.61-1.18,26.11,26.11,0,0,0,2.75-.78,77.46,77.46,0,0,0-115.22-95.24l-16.07-15.28,9,1.57h0c8.22,0,15.29-7.84,15.29-16.46,0-8.22-6.67-16.07-14.91-16.46l-47.41-.39Z" transform="translate(-131.57 -128.63)"/><path class="cls-1" d="M272.27,326.55h18.42V309.69c-36-6.66-63.09-37.62-63.09-75.25a76.12,76.12,0,0,1,5.48-28.6,33.85,33.85,0,0,1,12.54-2.36,36.47,36.47,0,0,1,19.2,5.49A44.59,44.59,0,0,0,257,234.44c0,25.48,21.16,46.64,47,46.64a46.75,46.75,0,0,0,46.63-46.64,47.36,47.36,0,0,0-29-43.49,96.22,96.22,0,0,0-34.09-31.36A76.64,76.64,0,0,1,320.42,309.3v17.64h16.46a14.88,14.88,0,0,1,14.89,14.87v0a15.13,15.13,0,0,1-14.89,14.89H320.47v11.75a15.19,15.19,0,0,1-15.28,14.89,14.54,14.54,0,0,1-14.5-14.6v-12H272.27a15.13,15.13,0,0,1-14.89-14.89C257.38,333.59,264,326.55,272.27,326.55Z" transform="translate(-131.57 -128.63)"/></svg>