<svg id="Layer_1" data-name="Layer 1" xmlns="http://www.w3.org/2000/svg" viewBox="0 0 219.96 216.41"><defs><style>.cls-1{fill:#fff;}.cls-1,.cls-2{fill-rule:evenodd;}.cls-2{fill:#5ec3f2;}</style></defs><title>lab</title><path class="cls-1" d="M361.68,319.34l-1.43-2.52c-5.74-10-18.67-33-32.29-52.75-4.3-6.82-9-12.92-12.93-18.3-6.46-9-14.71-20.1-14.71-23.69.37-14.36,0-48.8,0-59.21H309V147.8H200.19v15.07h11.5c0,10.41-.37,44.85,0,59.21,0,3.59-8.26,14.71-14.73,23.69-4.3,5.38-8.6,11.49-13.28,18.3-13.28,19.74-26.2,42.7-31.93,52.75l-1.43,2.52c-5.74,10-5.74,24,0,33.73a20.89,20.89,0,0,0,19,11.13H342.67c7.89,0,14.71-4,19-11.13,5.74-9.69,5.74-23.69,0-33.73Z" transform="translate(-146.02 -147.8)"/><path class="cls-2" d="M267.67,220.29c0-4.66,2.51-8.61,5.74-8.61s5.74,4,5.74,8.61-2.52,8.62-5.74,8.62S267.67,225,267.67,220.29Z" transform="translate(-146.02 -147.8)"/><path class="cls-2" d="M251.15,235c-5.73,0-10.41-7.17-10.41-15.79,0-9,4.67-16.15,10.41-16.15,6.11,0,10.77,7.18,10.77,16.15,0,8.62-4.66,15.79-10.77,15.79Z" transform="translate(-146.02 -147.8)"/><path class="cls-2" d="M259.77,248.64c0,6.11-3.23,10.77-7.18,10.77s-7.17-4.66-7.17-10.77c0-5.74,3.23-10.76,7.17-10.76S259.77,242.88,259.77,248.64Z" transform="translate(-146.02 -147.8)"/><path class="cls-2" d="M273.76,264.07c0,15.07-15.43,15.07-15.43,0,0-6.46,3.23-11.49,7.53-11.49S273.76,257.58,273.76,264.07Z" transform="translate(-146.02 -147.8)"/><path class="cls-2" d="M239.31,252.23c0,4.67-2.51,8.25-5.74,8.25s-5.74-3.59-5.74-8.25c0-5,2.51-8.61,5.74-8.61s5.74,3.59,5.74,8.61Z" transform="translate(-146.02 -147.8)"/><path class="cls-2" d="M342.67,320.78c-3.24-5.75-10.78-19.39-18.67-30.87-2.15-3.23-3.93-5.74-6.11-8.61H194.09c-2.15,2.87-3.94,5.38-6.09,8.61-7.9,11.49-15.43,25.12-18.67,30.87l-1.08,1.43a21.3,21.3,0,0,0,0,19.73c2.51,4.31,6.47,6.83,11.13,6.83H332.26a12.84,12.84,0,0,0,11.48-6.83,21.24,21.24,0,0,0,0-19.73Z" transform="translate(-146.02 -147.8)"/><path class="cls-2" d="M273.76,240.39c0,3.23-1.8,5.73-3.59,5.73-2.16,0-3.95-2.51-3.95-5.73,0-2.87,1.78-5.39,3.95-5.39C272,235,273.76,237.52,273.76,240.39Z" transform="translate(-146.02 -147.8)"/></svg>