<svg id="Слой_1" data-name="Слой 1" xmlns="http://www.w3.org/2000/svg" viewBox="0 0 576.01 512.01"><defs><style>.cls-1{fill:#027fcc;}</style></defs><title>clinic-medical-solid</title><path class="cls-1" d="M288,115,69.47,307.71c-1.62,1.46-3.69,2.14-5.47,3.35V496a16,16,0,0,0,16,16H496a16,16,0,0,0,16-16V311.1c-1.7-1.16-3.72-1.82-5.26-3.2Zm96,261a8,8,0,0,1-8,8H320v56a8,8,0,0,1-8,8H264a8,8,0,0,1-8-8V384H200a8,8,0,0,1-8-8V328a8,8,0,0,1,8-8h56V264a8,8,0,0,1,8-8h48a8,8,0,0,1,8,8v56h56a8,8,0,0,1,8,8ZM570.69,236.28l-255.94-226a39.85,39.85,0,0,0-53.45,0l-256,226a16,16,0,0,0-1.21,22.59h0L25.5,282.7a16,16,0,0,0,22.59,1.21h0L277.42,81.63a16,16,0,0,1,21.17,0L527.91,283.9a16,16,0,0,0,22.6-1.2h0l21.4-23.82A16,16,0,0,0,570.69,236.28Z" transform="translate(0.01 0.01)"/></svg>