<svg id="Layer_1" data-name="Layer 1" xmlns="http://www.w3.org/2000/svg" viewBox="0 0 828 265"><defs><style>.cls-1{fill:#1ab2fd;}</style></defs><title>M</title><path class="cls-1" d="M741.88,318H700V291.5c0-14.63-11.25-26.5-25.12-26.5H591.13C577.25,265,566,276.87,566,291.5V318H524.13C510.25,318,499,329.87,499,344.5v159c0,14.63,11.25,26.5,25.13,26.5H741.88c13.87,0,25.12-11.87,25.12-26.5v-159C767,329.87,755.75,318,741.88,318ZM599.5,300.33h67V318h-67Zm83.75,136.92a4.32,4.32,0,0,1-4.19,4.42H649.75v30.91a4.32,4.32,0,0,1-4.19,4.42H620.44a4.32,4.32,0,0,1-4.19-4.42V441.67H586.94a4.32,4.32,0,0,1-4.19-4.42v-26.5a4.32,4.32,0,0,1,4.19-4.42h29.31V375.42a4.32,4.32,0,0,1,4.19-4.42h25.12a4.32,4.32,0,0,1,4.19,4.42v30.91h29.31a4.32,4.32,0,0,1,4.19,4.42Z" transform="translate(-219 -265)"/><rect class="cls-1" y="142" width="273" height="12"/><rect class="cls-1" x="555" y="142" width="273" height="12"/></svg>