<svg id="Layer_1" data-name="Layer 1" xmlns="http://www.w3.org/2000/svg" viewBox="0 0 1001.01486 422"><defs><style>.cls-1,.cls-2{fill:#1ab2fd;}.cls-2,.cls-3{font-size:100px;font-family:Arial-Black, Arial;font-weight:800;}.cls-4{letter-spacing:-0.06787em;}</style></defs><title>Medical</title><path class="cls-1" d="M460.12017,405.73551l-31.83866,67.4407a10.00819,10.00819,0,0,1-18.51382-.40709l-36.4511-85.69174-19.2185,48.64685H293.816l116.91257,126.5361a10.97858,10.97858,0,0,0,16.46386,0l116.97662-126.5361h-69.8913l-14.15762-29.98872Zm98.33469-115.27337-1.53748-1.69619c-32.99177-35.68793-86.99578-35.68793-120.05159,0l-17.87322,19.40446-17.87321-19.33662c-32.99177-35.75577-87.05982-35.75577-120.05159,0l-1.53748,1.62835c-31.198,33.78819-32.54334,87.59148-4.67651,123.5508h65.59916l22.99814-58.48478a10.05156,10.05156,0,0,1,18.83413-.27139L419.56912,442.984l31.39022-66.423a9.99038,9.99038,0,0,1,18.32165,0l17.681,37.452h76.16934c27.86683-35.95934,26.52155-89.76263-4.67649-123.55082Z" transform="translate(-254.98514 -262)"/><text class="cls-2" transform="translate(332.01486 144.59863)">LIFE</text><path class="cls-1" d="M876,268" transform="translate(-254.98514 -262)"/><text class="cls-3" transform="translate(331.01486 223.59863)">HOSPI<tspan class="cls-4" x="349.95117" y="0">T</tspan><tspan x="415.38086" y="0">AL</tspan></text></svg>