<svg id="Layer_1" data-name="Layer 1" xmlns="http://www.w3.org/2000/svg" viewBox="0 0 548 180"><defs><style>.cls-1{fill:#1ab2fd;}</style></defs><title>medi</title><path class="cls-1" d="M468,252H438V234a18.00464,18.00464,0,0,0-18-18H360a18.00464,18.00464,0,0,0-18,18v18H312a18.00464,18.00464,0,0,0-18,18V378a18.00464,18.00464,0,0,0,18,18H468a18.00464,18.00464,0,0,0,18-18V270A18.00464,18.00464,0,0,0,468,252ZM366,240h48v12H366Zm60,93a3.00882,3.00882,0,0,1-3,3H402v21a3.00882,3.00882,0,0,1-3,3H381a3.00882,3.00882,0,0,1-3-3V336H357a3.00882,3.00882,0,0,1-3-3V315a3.00882,3.00882,0,0,1,3-3h21V291a3.00882,3.00882,0,0,1,3-3h18a3.00882,3.00882,0,0,1,3,3v21h21a3.00882,3.00882,0,0,1,3,3Z" transform="translate(-116 -216)"/><rect class="cls-1" y="98" width="162" height="20"/><rect class="cls-1" x="386" y="98" width="162" height="20"/></svg>