<svg id="Layer_1" data-name="Layer 1" xmlns="http://www.w3.org/2000/svg" viewBox="0 0 244.17 256.86"><defs><style>.cls-1{fill:#fff;}.cls-1,.cls-2{fill-rule:evenodd;}.cls-2{fill:#5ec3f2;}</style></defs><title>nerro</title><path class="cls-1" d="M354.85,226.68c-3-32.63-21.75-62.26-49-80.4a108.69,108.69,0,0,0-49-17.51c-48.36-6.67-98.51,14.49-116.65,61.63-15.72,41.1-.6,81,27.22,111.82,10.26,10.89,11.47,32,11.47,45.93v28.43c0,4.82,3.62,7.85,8.45,7.85H290.18c4.23,0,7.85-3,7.85-7.25.6-5.45,1.2-10.29,1.2-10.29,6.06-26.58,44.13-4.22,53.79-20.55,1.23-1.21,4.85-11.47,2.44-11.47-22.37,2.41-17.54-29,1.81-16.93,8.45,5.43,2.41-15.72,2.41-15.72,3-1.21,27.8-4.84,14.49-17.51-18.11-18.14-20.53-26.61-21.15-28.42-1.8-9.06,2.44-20.56,1.83-29.62Z" transform="translate(-133.9 -127.57)"/><path class="cls-2" d="M334.62,178.33c-3-3-6-5.43-9.06-6.64-1.2-1.81-2.43-3-3.64-4.85-5.43-6-29-15.1-37.46-16.91a45.15,45.15,0,0,0-15.72.6c-9.05-3.62-20.55-2.41-27.79,3.63-11.48-4.84-27.2.61-33.25,12.08-11.48,2.41-22.37,13.91-22.37,26-8.45,4.83-12.68,18.11-14.49,27.79-2.42,10.87,3,36.26,16.91,38.67,8.47,1.83-1.21,34.46,37.48,24.8h0c2.41,3.63,7.24,1.81,7.24,1.81,19.36,22.37,36.88-45.33,30.84-29.63,10.26,5.46,19.94,1.21,29-3s16.93-8.45,20.56-19.35c8.47.61,15.72-3,19.34-9.66,0-1.21.61-1.81,1.21-3,12.07-7.27,9.66-32.65,1.2-42.31Z" transform="translate(-133.9 -127.57)"/></svg>