<svg id="Layer_1" data-name="Layer 1" xmlns="http://www.w3.org/2000/svg" viewBox="0 0 216.14 240.47"><defs><style>.cls-1{fill:#fff;}</style></defs><title>nevro</title><path class="cls-1" d="M360.14,195.87c-6.71-11.63-20.89-17.78-41-17.78a120.53,120.53,0,0,0-19.05,1.69c-10.3-27-26.07-44-44.06-44s-33.79,17-44.08,44a121.73,121.73,0,0,0-19.06-1.68c-20.13,0-34.31,6.15-41,17.78-9,15.58-2.16,37.73,16.06,60.13-18.23,22.4-25,44.54-16.06,60.13,6.73,11.62,20.91,17.78,41,17.78A120.53,120.53,0,0,0,212,332.25c10.3,27,26.08,44,44.08,44s33.76-17,44.06-44a121.7,121.7,0,0,0,19.05,1.67c20.15,0,34.33-6.15,41-17.78,9-15.57,2.16-37.73-16-60.13C362.31,233.6,369.14,211.45,360.14,195.87Zm-41-8.34c16.32,0,28,4.64,32.84,13.06,6.75,11.67.6,29.47-14.24,48.08a204.19,204.19,0,0,0-27.1-24.21,206,206,0,0,0-7.42-35.61,111.46,111.46,0,0,1,15.91-1.32ZM279.59,296.84a249.8,249.8,0,0,1-23.58,12,249.8,249.8,0,0,1-23.58-12,246.48,246.48,0,0,1-22.13-14.46,237.35,237.35,0,0,1,0-52.75,244.52,244.52,0,0,1,22.13-14.48,251,251,0,0,1,23.58-12,253.44,253.44,0,0,1,23.58,12,250.23,250.23,0,0,1,22.13,14.47A244.76,244.76,0,0,1,303.17,256a250,250,0,0,1-1.45,26.38A244.32,244.32,0,0,1,279.59,296.84ZM300,295.16a192.09,192.09,0,0,1-6.23,26.24,183.07,183.07,0,0,1-25.94-7.71c5.53-2.68,11-5.51,16.51-8.67S295,298.54,300,295.16Zm-55.8,18.53a181.52,181.52,0,0,1-25.92,7.71,189.19,189.19,0,0,1-6.23-26.24c5,3.36,10.19,6.69,15.66,9.84S238.69,311,244.2,313.69Zm-44.08-39.21A192.1,192.1,0,0,1,180.54,256a188.86,188.86,0,0,1,19.58-18.47c-.43,6-.72,12.15-.72,18.46S199.69,268.45,200.12,274.48Zm11.93-57.62a189,189,0,0,1,6.23-26.25,181.52,181.52,0,0,1,25.92,7.71c-5.51,2.68-11,5.52-16.49,8.67s-10.64,6.47-15.65,9.86Zm55.74-18.54a183.07,183.07,0,0,1,25.94-7.71A189.32,189.32,0,0,1,300,216.85c-5-3.38-10.19-6.69-15.66-9.85s-11-6-16.55-8.69Zm44.11,39.22A189.78,189.78,0,0,1,331.48,256a192,192,0,0,1-19.58,18.47c.43-6,.69-12.17.69-18.48s-.26-12.43-.68-18.46ZM256,145.18c13.51,0,25.86,14.25,34.56,36.47A204.74,204.74,0,0,0,256,193a205.64,205.64,0,0,0-34.56-11.3C230.13,159.43,242.5,145.18,256,145.18Zm-96,55.41c4.86-8.42,16.52-13.06,32.84-13.06a111.72,111.72,0,0,1,15.92,1.32,203.94,203.94,0,0,0-7.43,35.61,204.82,204.82,0,0,0-27.1,24.21C159.43,230.06,153.29,212.26,160,200.59Zm32.85,123.88c-16.31,0-28-4.64-32.83-13.06-6.75-11.68-.59-29.47,14.24-48.08a205.45,205.45,0,0,0,27.1,24.2,205.85,205.85,0,0,0,7.42,35.6,109.91,109.91,0,0,1-15.9,1.34ZM256,366.82c-13.51,0-25.87-14.25-34.56-36.47A204.71,204.71,0,0,0,256,319.06a204.71,204.71,0,0,0,34.56,11.29C281.87,352.57,269.52,366.82,256,366.82Zm96-55.41c-4.87,8.42-16.53,13.06-32.87,13.06a111.47,111.47,0,0,1-15.91-1.33,203.91,203.91,0,0,0,7.43-35.59,203.56,203.56,0,0,0,27.09-24.23C352.59,281.94,358.73,299.73,352,311.41ZM278.41,256a22.38,22.38,0,1,1,0-.05Z" transform="translate(-147.95 -135.78)"/></svg>