<svg id="Layer_1" data-name="Layer 1" xmlns="http://www.w3.org/2000/svg" viewBox="0 0 279.88 240.63"><defs><style>.cls-1{fill:#fff;}.cls-2{fill:#5ec3f2;}</style></defs><title>oftomol</title><path class="cls-1" d="M389.58,272.38H353l-24.57-42.22a6.25,6.25,0,0,0-5.59-3H273.67L251.26,187.5l24.57-42.23a6.41,6.41,0,0,0-2.58-8.62,6.29,6.29,0,0,0-8.62,2.15l-24.55,42.66H194.82L170.25,138.8a6.28,6.28,0,1,0-11,6,4.64,4.64,0,0,0,.25.42l24.12,42.23-24.12,42.66a5.8,5.8,0,0,0,0,6.46l24.12,42.23L161.21,318H122.42a6.47,6.47,0,0,0,0,12.93h38.79l24.55,42.23c.86,2.15,3,3,5.61,3h52.57a6.28,6.28,0,0,0,5.6-3L273.67,331h49.12a6.7,6.7,0,0,0,5.59-3.44L353,285.3h36.62a6.46,6.46,0,1,0,0-12.92Z" transform="translate(-116.2 -135.54)"/><polygon class="cls-2" points="78.62 58.42 78.62 58.42 123.86 58.42 146.69 97.63 123.86 136.84 78.62 136.84 55.79 97.63 78.62 58.42"/><polygon class="cls-2" points="123.86 228.19 123.86 228.19 78.62 228.19 55.79 188.98 78.62 149.77 123.86 149.77 146.69 188.98 123.86 228.19"/></svg>