<svg id="Layer_1" data-name="Layer 1" xmlns="http://www.w3.org/2000/svg" viewBox="0 0 115.34 264"><defs><style>.cls-1{fill:#f0d5b8;}.cls-1,.cls-10,.cls-13,.cls-15,.cls-2,.cls-3,.cls-4,.cls-5,.cls-6,.cls-8,.cls-9{fill-rule:evenodd;}.cls-2{fill:#440b43;}.cls-3{fill:#ef6c00;}.cls-4{fill:#31baff;}.cls-5{fill:#78909c;}.cls-6{fill:#fcdbc1;}.cls-7,.cls-8{fill:#fff;}.cls-11,.cls-9{fill:#fffffe;}.cls-10{fill:#fcc197;}.cls-12{fill:#fcab6e;}.cls-13,.cls-14{fill:#424242;}.cls-15{fill:#eabe9e;}</style></defs><title>man</title><path class="cls-1" d="M300.59,265.39l-8.52-1.57c-5.45,7.5,2.24,11.47,2,19.45,0,.84,2,.52,1.85-.56l.46-3.06-.26-2.06s2.16-.69,2.6,5.89l.88,6.85c.61,1,2.08,1.84,2.67.66s-.22-5.57,1.36-12.56S300.59,265.39,300.59,265.39Z" transform="translate(-188.59 -114.74)"/><path class="cls-2" d="M215.85,367.31l3.48-96.21,63.66.16-4.26,97H255.66s5.69-53.56-1.26-71.25-9.17,2.21-9.17,2.21-7.89,51.18-5.37,68.4Z" transform="translate(-188.59 -114.74)"/><polygon class="cls-3" points="52.82 81.83 52.82 82.02 52.62 156.41 71.84 156.46 71.64 81.6 68.15 81.91 62.13 90.24 56.27 82.14 52.82 81.83"/><path class="cls-4" d="M217.12,252.74l-2.35,36.67,36.14,5.38h0l0-17.06L250.72,205l-9.18-22.33-2.06.21A32.2,32.2,0,0,0,227.8,187h0c-2.69.24-6.19,1.65-9.14,6.48-5.67,9.28-27.59,37.12-27.59,37.12s-6.9,16.74,2.32,17.28l52.86,3.09-28.64-1.68-.49,3.5Zm11-65.82-3.72,32,3.72-32h0l3.91.58-3.91-.58Zm-6.94,36.59L220,232l-4.72-.08Z" transform="translate(-188.59 -114.74)"/><path class="cls-5" d="M258,367l.33,11.05,8.38.67-.83-3.57,7.86,1.23,3.94,2,12.3-.17s3.69-4.78-6.78-8.12-9.65-4.11-9.65-4.11L258,366.1l0,1.58Z" transform="translate(-188.59 -114.74)"/><path class="cls-5" d="M236.68,367l-.34,11.05-8.37.67.68-2.95-7.71.61-3.94,2-12.31-.17s-3.68-4.78,6.78-8.12,9.66-4.11,9.66-4.11l15.57.09,0,1.58Z" transform="translate(-188.59 -114.74)"/><path class="cls-4" d="M302.13,265.37c-2.16-26.65-6.67-46.46-12.28-63.33-4.62-13.91-13.62-12.44-25-18h0a15.74,15.74,0,0,0-4.68-1.67l-9.5,20.42.2,92,36-5.38-2.38-37.25-3.37-26c3.7,16.47,7.78,38.36,7.88,40.19C289.13,268.46,302.13,265.37,302.13,265.37Z" transform="translate(-188.59 -114.74)"/><path class="cls-6" d="M241.29,183.46l3.57,13.42,5.86,8.1,6-8.33,3.57-13.42.05.05v-.07a32.24,32.24,0,0,1-19.07.25Z" transform="translate(-188.59 -114.74)"/><polygon class="cls-4" points="76.75 71.61 83.44 80.16 76.78 80.9 68.15 81.85 71.72 65.16 76.75 71.61"/><circle class="cls-7" cx="62.15" cy="93.44" r="1.55"/><path class="cls-8" d="M250.74,226.29a1.55,1.55,0,0,0,0-3.09,1.55,1.55,0,1,0,0,3.09Z" transform="translate(-188.59 -114.74)"/><circle class="cls-7" cx="62.15" cy="143.11" r="1.55"/><path class="cls-8" d="M250.9,275.94a1.55,1.55,0,1,0-1.55-1.55A1.55,1.55,0,0,0,250.9,275.94Z" transform="translate(-188.59 -114.74)"/><path class="cls-8" d="M250.9,292.49a1.55,1.55,0,1,0-1.55-1.55A1.55,1.55,0,0,0,250.9,292.49Z" transform="translate(-188.59 -114.74)"/><path class="cls-1" d="M243.46,246.72l-1.57-8.52c7.51-5.46,12,2.89,20,2.62,1.47.05,0,5-6.14,2,0,0-1.54,2.42,5,2.87l6.81-.59c1,.6,2.65,2.71,1.47,3.31s-5.57-.22-12.55,1.36S243.46,246.72,243.46,246.72Z" transform="translate(-188.59 -114.74)"/><polygon class="cls-9" points="43.32 70.22 18.61 135.53 24.09 135.85 28.88 136.02 52.71 136.24 60.58 136.14 43.81 70.01 43.7 70.06 43.32 70.22"/><polygon class="cls-4" points="47.67 71.89 40.99 80.45 47.65 81.18 56.27 82.14 52.7 65.44 47.67 71.89"/><path class="cls-10" d="M250.43,184.78a32,32,0,1,0-32-31.95A32,32,0,0,0,250.43,184.78Z" transform="translate(-188.59 -114.74)"/><rect class="cls-11" x="53.23" y="55.49" width="1.1" height="2.58"/><rect class="cls-11" x="52.01" y="55.93" width="1.1" height="1.7"/><rect class="cls-11" x="54.44" y="55.18" width="1.1" height="3.08"/><rect class="cls-11" x="55.68" y="54.88" width="1.1" height="3.49"/><rect class="cls-11" x="56.91" y="54.78" width="1.1" height="3.84"/><rect class="cls-11" x="58.14" y="54.68" width="1.1" height="4.1"/><rect class="cls-11" x="59.37" y="54.58" width="1.1" height="4.29"/><rect class="cls-11" x="60.6" y="54.48" width="1.1" height="4.45"/><rect class="cls-11" x="69.22" y="55.49" width="1.1" height="2.58"/><rect class="cls-11" x="70.45" y="55.93" width="1.1" height="1.7"/><rect class="cls-11" x="68.01" y="55.18" width="1.1" height="3.08"/><rect class="cls-11" x="66.78" y="54.88" width="1.1" height="3.49"/><rect class="cls-11" x="65.55" y="54.78" width="1.1" height="3.84"/><rect class="cls-11" x="64.32" y="54.68" width="1.1" height="4.1"/><rect class="cls-11" x="63.08" y="54.58" width="1.1" height="4.29"/><rect class="cls-11" x="61.85" y="54.48" width="1.1" height="4.45"/><path class="cls-12" d="M239.25,171.58a4,4,0,0,0,0,2.12c.18.24.48.42.68.2,3-3.4,6.47-3,9.92-2.93h1.24c3.5,0,6.94-.36,10,2.93.2.21.52,0,.7-.23a4,4,0,0,0,0-2.09c-3.31-3.59-7-3-10.66-3h-1.23C246.22,168.56,242.52,167.86,239.25,171.58Z" transform="translate(-188.59 -114.74)"/><path class="cls-12" d="M239.25,173.7a4,4,0,0,1,0-2.12c.18-.24.48-.42.68-.2,3.86,4.38,17.23,4.21,21.13,0,.2-.22.54,0,.71.26a3.79,3.79,0,0,1,0,2.06C257.73,178,243.2,178.19,239.25,173.7Z" transform="translate(-188.59 -114.74)"/><path class="cls-9" d="M237.22,154.27c2.52,0,4.58-1.4,4.58-3.13s-2.06-3.13-4.58-3.13-4.58,1.41-4.58,3.13S234.7,154.27,237.22,154.27Z" transform="translate(-188.59 -114.74)"/><path class="cls-13" d="M237.22,152.84c1.37,0,2.48-.76,2.48-1.7s-1.11-1.69-2.48-1.69-2.48.76-2.48,1.69S235.85,152.84,237.22,152.84Z" transform="translate(-188.59 -114.74)"/><path class="cls-14" d="M242.63,149.93a.92.92,0,1,0,1.39-1.2s-5.39-6.44-13.73-.18a.9.9,0,0,0-.18,1.28.91.91,0,0,0,1.28.19C238.34,144.8,242.62,149.91,242.63,149.93Z" transform="translate(-188.59 -114.74)"/><path class="cls-9" d="M263.64,154.27c2.52,0,4.58-1.4,4.58-3.13s-2.06-3.13-4.58-3.13-4.58,1.41-4.58,3.13S261.12,154.27,263.64,154.27Z" transform="translate(-188.59 -114.74)"/><path class="cls-13" d="M263.64,152.84c1.37,0,2.48-.76,2.48-1.7s-1.11-1.69-2.48-1.69-2.48.76-2.48,1.69S262.27,152.84,263.64,152.84Z" transform="translate(-188.59 -114.74)"/><path class="cls-14" d="M258.23,149.93a.92.92,0,0,1-1.29.1.93.93,0,0,1-.1-1.3s5.39-6.44,13.73-.18a.91.91,0,0,1,.19,1.28.92.92,0,0,1-1.29.19C262.52,144.8,258.25,149.91,258.23,149.93Z" transform="translate(-188.59 -114.74)"/><path class="cls-10" d="M283.78,153.39c4.12,8.24-3.34,13.73-5.92,14,.9-1.48,2.55-11.25,4-13.74C282.24,153,283.6,153,283.78,153.39Z" transform="translate(-188.59 -114.74)"/><path class="cls-15" d="M283.08,155.44a6.83,6.83,0,0,1-4.16,9.81c.64-1,1.79-7.89,2.81-9.63C282,155.16,283,155.18,283.08,155.44Z" transform="translate(-188.59 -114.74)"/><path class="cls-10" d="M216.92,153.39c-4.12,8.24,3.34,13.73,5.92,14-.9-1.48-2.55-11.25-4-13.74C218.46,153,217.1,153,216.92,153.39Z" transform="translate(-188.59 -114.74)"/><path class="cls-15" d="M217.62,155.44a6.82,6.82,0,0,0,4.16,9.81c-.64-1-1.79-7.89-2.81-9.63C218.7,155.16,217.75,155.18,217.62,155.44Z" transform="translate(-188.59 -114.74)"/><path class="cls-2" d="M223.16,161.2a4.35,4.35,0,0,1-.45-.37c-2.29-1.92-2.21-8.58,1.18-12,3.63-3.63-2.91-12.83,10.65-11.38s15.49,3.87,24.2-1,16.7-3.63,16.22,5.57,4.6,10.89,4.6,10.89,3.24.18-.49,5.89c-4.83,7.42,17.4-14.8-.66-32.75-8.56-8.51-9.32-13.44-34.49-10.53s-26.63,26.14-26.63,26.14-1.67,12.68,4.67,18.53h0A9.91,9.91,0,0,0,223.16,161.2Z" transform="translate(-188.59 -114.74)"/></svg>