<svg id="Layer_1" data-name="Layer 1" xmlns="http://www.w3.org/2000/svg" viewBox="0 0 120.72 276.71"><defs><style>.cls-1{fill:#fff;}</style></defs><title>proktolog</title><path class="cls-1" d="M299.12,161.14a43.12,43.12,0,0,0-86.23-1.31c0,.43,0,.87,0,1.31V291.47a60.36,60.36,0,1,0,86.23,0ZM256,376.73a30.47,30.47,0,0,1-5.22-.51,42.84,42.84,0,0,1-20.65-76.9V161.14a25.87,25.87,0,0,1,51.74,0V299.32A43,43,0,0,1,256,376.73Z" transform="translate(-195.64 -117.36)"/><path class="cls-1" d="M264.62,309.33V187H247.38V309.33a25.87,25.87,0,1,0,17.25,0Z" transform="translate(-195.64 -117.36)"/></svg>