<svg id="Layer_1" data-name="Layer 1" xmlns="http://www.w3.org/2000/svg" viewBox="0 0 223.21 178.4"><defs><style>.cls-1{fill:#fff;fill-rule:evenodd;}</style></defs><title>terap</title><path class="cls-1" d="M267.51,232.23h0l77.17,99.28c23.07-22.11,26.83-58.81,7.54-84.24-20.23-26.33-56.46-32-84.7-15Z" transform="translate(-141.4 -171.59)"/><path class="cls-1" d="M144.21,253.9h0L259.5,205.42C244,176.69,209.63,164,180,176.24c-30.59,12.71-45.18,46.11-35.76,77.66Z" transform="translate(-141.4 -171.59)"/><path class="cls-1" d="M333.39,340h0c-27.77,17.41-64.47,11.75-84.24-14.58-19.29-25.42-16-62.13,7.52-84.24Z" transform="translate(-141.4 -171.59)"/><path class="cls-1" d="M257.16,234.12l-3.78,3.75a68.84,68.84,0,0,0-21.17,56.49c-.94.45-1.88.94-2.82,1.39-30.12,12.25-64.48-.94-80-29.16l115.77-48.46a54.72,54.72,0,0,1,1.88,9.4c-.47,0-.94.46-1.88.94l-4.23,2.34Z" transform="translate(-141.4 -171.59)"/></svg>