<svg id="Layer_1" data-name="Layer 1" xmlns="http://www.w3.org/2000/svg" viewBox="0 0 567.79747 176.02174"><defs><style>.cls-1,.cls-2{fill:#1ab2fd;}.cls-2{font-size:60px;font-family:MyriadPro-Regular, Myriad Pro;}.cls-3{letter-spacing:0.004em;}</style></defs><title>Untitled-2</title><path class="cls-1" d="M131.42119,74.78484,118.316,100.95908a4.21841,4.21841,0,0,1-7.62051-.158L95.69179,67.54347,87.78122,86.42369H62.9684L111.091,135.5333a4.70263,4.70263,0,0,0,6.77672,0l48.149-49.10961h-28.7681l-5.82744-11.63885Zm40.47573-44.73847-.63284-.6583a34.57642,34.57642,0,0,0-49.41468,0l-7.35683,7.531-7.35683-7.50468a34.53055,34.53055,0,0,0-49.41468,0l-.63284.632a36.11848,36.11848,0,0,0-1.92491,47.951h27.0014L91.631,55.299a4.22946,4.22946,0,0,1,7.75236-.10533l15.3465,34.04758L127.65048,63.462a4.2158,4.2158,0,0,1,7.54141,0l7.27772,14.5354h31.35222a36.11848,36.11848,0,0,0-1.92491-47.951Z" transform="translate(-46.98514 -19)"/><text class="cls-2" transform="translate(135.18869 73.5127)">MEDI<tspan class="cls-3" x="132.05762" y="0">C</tspan><tspan x="167.09668" y="0">AL</tspan></text></svg>