<svg id="Layer_1" data-name="Layer 1" xmlns="http://www.w3.org/2000/svg" viewBox="0 0 228.27 208.71"><defs><style>.cls-1{fill:#fff;}</style></defs><title>urolog</title><path class="cls-1" d="M361.18,300.82a30.1,30.1,0,0,1,.27,42.57l-.27.27c-11.94,11.59-31.25,11.59-42.84,0a29.93,29.93,0,0,1-8.78-24.94L271.27,293.8c-.34.36-1,1.05-1.41,1.41a28.63,28.63,0,0,1-17.2,8.42l1.05,13.7c4.56,0,8.78,2.12,12.29,5.63,7.73,7.72,7.73,20,0,28.09a19.91,19.91,0,0,1-28.09,0c-7.73-8.08-7.73-20.37,0-28.09a20.78,20.78,0,0,1,6.66-4.57l-1.4-14.75A31.39,31.39,0,0,1,227,295.21l-25.64,25.64A31,31,0,0,1,194,351.4c-12.28,11.94-31.25,11.94-43.19,0a30.12,30.12,0,0,1-.24-42.6l.24-.24a30.43,30.43,0,0,1,38.63-3.87l30.21-21.41a30,30,0,0,1-.36-17.57l-22.82-11.22a11.49,11.49,0,0,1-15.8-1.07,11.23,11.23,0,0,1-.27-15.88l.27-.27c4.56-4.56,12.3-4.56,16.5,0a11,11,0,0,1,3.51,8.79l22.13,11.24a29.51,29.51,0,0,1,4.21-4.92,30.63,30.63,0,0,1,10.89-7l-7-33.37A26.54,26.54,0,0,1,213,203.19a30.11,30.11,0,0,1-.27-42.58l.27-.27a30.74,30.74,0,0,1,42.84,0,30.11,30.11,0,0,1,.27,42.58l-.27.27a25.45,25.45,0,0,1-8.77,6.32l4.21,34.07c5.61.35,11.24,2.8,16.15,6.32l7-5.62a21.32,21.32,0,0,1,2.45-27.39,22,22,0,0,1,31.25,30.9A22.29,22.29,0,0,1,280.76,251l-7,6A30.91,30.91,0,0,1,278,280.53l40.39,20.36a30.1,30.1,0,0,1,42.57-.27l.27.27Z" transform="translate(-141.87 -151.65)"/></svg>